<svg width="40" height="40" viewBox="0 0 40 40" fill="none" xmlns="http://www.w3.org/2000/svg">
<circle cx="20" cy="20" r="20" fill="#FF4949"/>
<g clip-path="url(#clip0_608_38)">
<path d="M19 23H21V25H19V23ZM19 15H21V21H19V15ZM19.99 10C14.47 10 10 14.48 10 20C10 25.52 14.47 30 19.99 30C25.52 30 30 25.52 30 20C30 14.48 25.52 10 19.99 10ZM20 28C15.58 28 12 24.42 12 20C12 15.58 15.58 12 20 12C24.42 12 28 15.58 28 20C28 24.42 24.42 28 20 28Z" fill="white"/>
</g>
<defs>
<clipPath id="clip0_608_38">
<rect width="24" height="24" fill="white" transform="translate(8 8)"/>
</clipPath>
</defs>
</svg>
