<svg width="135" height="40" viewBox="0 0 135 40" fill="none" xmlns="http://www.w3.org/2000/svg">
<path d="M129.312 0H4.97355C2.22673 0 0 2.23858 0 5V35C0 37.7614 2.22673 40 4.97355 40H129.312C132.059 40 134.286 37.7614 134.286 35V5C134.286 2.23858 132.059 0 129.312 0Z" fill="black"/>
<path d="M46.5912 10.155C46.6082 10.5218 46.5505 10.8882 46.4216 11.232C46.2927 11.5758 46.0952 11.8899 45.8412 12.155C45.5576 12.4496 45.2151 12.6811 44.8361 12.8345C44.457 12.9878 44.0499 13.0596 43.6412 13.045C43.0212 13.0402 42.4164 12.8525 41.9026 12.5054C41.3888 12.1583 40.9889 11.6673 40.7529 11.0939C40.5169 10.5206 40.4554 9.89031 40.5761 9.28212C40.6968 8.67394 40.9942 8.1149 41.4312 7.67504C41.7184 7.38182 42.0628 7.15066 42.4429 6.99585C42.823 6.84105 43.2309 6.76589 43.6412 6.77504C44.064 6.77363 44.4826 6.85871 44.8712 7.02504C45.2331 7.17099 45.5552 7.40059 45.8112 7.69504L45.2812 8.22504C45.0816 7.98763 44.8296 7.7999 44.5449 7.67667C44.2603 7.55345 43.9509 7.49811 43.6412 7.51504C43.3289 7.5135 43.0194 7.57506 42.7314 7.69602C42.4434 7.81699 42.1828 7.99486 41.9653 8.21898C41.7477 8.44309 41.5776 8.70884 41.4652 9.00028C41.3528 9.29172 41.3004 9.60286 41.3112 9.91504C41.3047 10.3812 41.4363 10.8388 41.6896 11.2302C41.9428 11.6216 42.3063 11.9292 42.7342 12.1143C43.162 12.2994 43.6351 12.3535 44.0938 12.27C44.5524 12.1865 44.976 11.969 45.3112 11.645C45.6189 11.3116 45.7964 10.8785 45.8112 10.425H43.6412V9.70504H46.5512C46.5779 9.85355 46.5913 10.0041 46.5912 10.155Z" fill="#F3F3F3" stroke="#F3F3F3" stroke-width="0.2" stroke-miterlimit="10"/>
<path d="M51.1721 7.65492H48.4721V9.55492H50.9321V10.2749H48.4721V12.1749H51.1721V12.9149H47.6721V6.91492H51.1721V7.65492Z" fill="#F3F3F3" stroke="#F3F3F3" stroke-width="0.2" stroke-miterlimit="10"/>
<path d="M54.4522 12.9149H53.6822V7.65492H52.0022V6.91492H56.1722V7.65492H54.4522V12.9149Z" fill="#F3F3F3" stroke="#F3F3F3" stroke-width="0.2" stroke-miterlimit="10"/>
<path d="M59.1116 12.9149V6.91492H59.8816V12.9149H59.1116Z" fill="#F3F3F3" stroke="#F3F3F3" stroke-width="0.2" stroke-miterlimit="10"/>
<path d="M63.3018 12.9149H62.5318V7.65492H60.8518V6.91492H64.9718V7.65492H63.3018V12.9149Z" fill="#F3F3F3" stroke="#F3F3F3" stroke-width="0.2" stroke-miterlimit="10"/>
<path d="M72.7831 12.1354C72.1985 12.7167 71.4075 13.043 70.5831 13.043C69.7586 13.043 68.9677 12.7167 68.3831 12.1354C67.8149 11.5339 67.4983 10.7378 67.4983 9.91038C67.4983 9.08294 67.8149 8.28685 68.3831 7.68538C68.6712 7.39512 69.014 7.16475 69.3916 7.00755C69.7691 6.85034 70.1741 6.76941 70.5831 6.76941C70.9921 6.76941 71.397 6.85034 71.7746 7.00755C72.1522 7.16475 72.4949 7.39512 72.7831 7.68538C73.3536 8.28571 73.6717 9.08222 73.6717 9.91038C73.6717 10.7385 73.3536 11.535 72.7831 12.1354ZM68.9531 11.6354C69.386 12.0665 69.9721 12.3085 70.5831 12.3085C71.1941 12.3085 71.7802 12.0665 72.2131 11.6354C72.6403 11.1644 72.877 10.5513 72.877 9.91538C72.877 9.27949 72.6403 8.66636 72.2131 8.19538C71.7802 7.76425 71.1941 7.5222 70.5831 7.5222C69.9721 7.5222 69.386 7.76425 68.9531 8.19538C68.5258 8.66636 68.2892 9.27949 68.2892 9.91538C68.2892 10.5513 68.5258 11.1644 68.9531 11.6354Z" fill="#F3F3F3" stroke="#F3F3F3" stroke-width="0.2" stroke-miterlimit="10"/>
<path d="M74.7522 12.9149V6.91492H75.6922L78.6122 11.5849V10.4249V6.91492H79.3822V12.9149H78.5822L75.5322 8.02492V9.18492V12.9149H74.7522Z" fill="#F3F3F3" stroke="#F3F3F3" stroke-width="0.2" stroke-miterlimit="10"/>
<path d="M67.3122 21.665C66.4725 21.669 65.6528 21.9216 64.9565 22.391C64.2602 22.8604 63.7186 23.5255 63.4 24.3024C63.0814 25.0794 63.0001 25.9333 63.1663 26.7564C63.3326 27.5795 63.7389 28.3349 64.3341 28.9272C64.9292 29.5196 65.6865 29.9224 66.5104 30.0848C67.3343 30.2471 68.1878 30.1618 68.9632 29.8396C69.7386 29.5173 70.4012 28.9726 70.8673 28.2741C71.3335 27.5756 71.5822 26.7548 71.5822 25.915C71.5904 25.353 71.4853 24.795 71.2734 24.2744C71.0614 23.7537 70.7469 23.2811 70.3485 22.8845C69.9501 22.488 69.4759 22.1757 68.9543 21.9662C68.4327 21.7567 67.8742 21.6542 67.3122 21.665ZM67.3122 28.495C66.7958 28.5312 66.2805 28.4111 65.8332 28.1504C65.3859 27.8898 65.0274 27.5006 64.8042 27.0335C64.5811 26.5664 64.5036 26.0429 64.5819 25.5312C64.6602 25.0195 64.8906 24.5431 65.2432 24.1641C65.5958 23.785 66.0542 23.5208 66.559 23.4058C67.0637 23.2908 67.5914 23.3303 68.0734 23.5191C68.5554 23.708 68.9695 24.0375 69.2617 24.4647C69.554 24.892 69.711 25.3974 69.7122 25.915C69.7283 26.243 69.6786 26.571 69.5659 26.8795C69.4533 27.1879 69.28 27.4708 69.0564 27.7112C68.8327 27.9517 68.5631 28.1449 68.2636 28.2795C67.964 28.4141 67.6405 28.4874 67.3122 28.495ZM58.0022 21.665C57.1621 21.667 56.3414 21.9179 55.6438 22.3861C54.9462 22.8543 54.403 23.5188 54.0829 24.2955C53.7627 25.0723 53.68 25.9265 53.8451 26.7503C54.0102 27.574 54.4158 28.3304 55.0106 28.9238C55.6053 29.5171 56.3626 29.9209 57.1868 30.0841C58.0109 30.2473 58.8649 30.1625 59.6409 29.8406C60.4169 29.5186 61.0801 28.9739 61.5467 28.2752C62.0132 27.5765 62.2622 26.7552 62.2622 25.915C62.2704 25.353 62.1653 24.795 61.9534 24.2744C61.7414 23.7537 61.4269 23.2811 61.0285 22.8845C60.6301 22.488 60.1559 22.1757 59.6343 21.9662C59.1127 21.7567 58.5542 21.6542 57.9922 21.665H58.0022ZM58.0022 28.495C57.4855 28.5332 56.9694 28.4149 56.5209 28.1556C56.0723 27.8963 55.7123 27.5079 55.4876 27.0411C55.2629 26.5743 55.1839 26.0507 55.2609 25.5384C55.338 25.026 55.5675 24.5488 55.9195 24.1687C56.2716 23.7887 56.7299 23.5234 57.2349 23.4075C57.7398 23.2915 58.268 23.3303 58.7506 23.5187C59.2332 23.7071 59.6479 24.0365 59.9407 24.4639C60.2335 24.8913 60.3908 25.397 60.3922 25.915C60.4083 26.243 60.3586 26.571 60.2459 26.8795C60.1333 27.1879 59.96 27.4708 59.7364 27.7112C59.5127 27.9517 59.2431 28.1449 58.9436 28.2795C58.644 28.4141 58.3205 28.4874 57.9922 28.495H58.0022ZM46.9122 22.975V24.775H51.2322C51.1645 25.6228 50.8121 26.4228 50.2322 27.045C49.8 27.4853 49.2804 27.8301 48.7069 28.0575C48.1334 28.2848 47.5187 28.3896 46.9022 28.365C45.6292 28.365 44.4083 27.8593 43.5081 26.9591C42.6079 26.059 42.1022 24.8381 42.1022 23.565C42.1022 22.292 42.6079 21.0711 43.5081 20.1709C44.4083 19.2707 45.6292 18.765 46.9022 18.765C48.12 18.7452 49.296 19.2091 50.1722 20.055L51.4422 18.785C50.8507 18.1861 50.145 17.7119 49.3668 17.3907C48.5887 17.0695 47.754 16.9077 46.9122 16.915C46.0232 16.8804 45.1364 17.0257 44.3048 17.342C43.4733 17.6583 42.7142 18.1393 42.073 18.756C41.4318 19.3728 40.9217 20.1126 40.5732 20.9312C40.2248 21.7498 40.0452 22.6304 40.0452 23.52C40.0452 24.4097 40.2248 25.2902 40.5732 26.1088C40.9217 26.9274 41.4318 27.6673 42.073 28.284C42.7142 28.9008 43.4733 29.3817 44.3048 29.6981C45.1364 30.0144 46.0232 30.1596 46.9122 30.125C47.7682 30.1637 48.6225 30.0186 49.4177 29.6995C50.2128 29.3804 50.9305 28.8947 51.5222 28.275C52.5699 27.124 53.1293 25.6108 53.0822 24.055C53.0854 23.676 53.052 23.2976 52.9822 22.925L46.9122 22.975ZM92.2222 24.375C91.9614 23.6078 91.4737 22.9378 90.8237 22.4539C90.1737 21.9699 89.392 21.6949 88.5822 21.665C88.0352 21.664 87.4938 21.7751 86.9915 21.9916C86.4891 22.208 86.0365 22.5252 85.6616 22.9236C85.2867 23.3219 84.9975 23.7929 84.8118 24.3074C84.6262 24.822 84.548 25.3691 84.5822 25.915C84.5701 26.4739 84.6707 27.0296 84.8781 27.5487C85.0855 28.0679 85.3954 28.5399 85.7893 28.9366C86.1832 29.3333 86.653 29.6465 87.1707 29.8576C87.6883 30.0687 88.2432 30.1732 88.8022 30.165C89.5017 30.1688 90.1912 29.999 90.809 29.6709C91.4268 29.3429 91.9536 28.8667 92.3422 28.285L90.8922 27.285C90.6758 27.6458 90.3694 27.9442 90.0031 28.1511C89.6367 28.3579 89.2229 28.4661 88.8022 28.465C88.3691 28.4815 87.9409 28.3673 87.5736 28.1373C87.2062 27.9072 86.9165 27.5719 86.7422 27.175L92.4322 24.825L92.2222 24.375ZM86.4222 25.795C86.4019 25.4857 86.4436 25.1755 86.5447 24.8825C86.6459 24.5895 86.8044 24.3196 87.0112 24.0886C87.2179 23.8577 87.4687 23.6703 87.7487 23.5375C88.0288 23.4046 88.3326 23.329 88.6422 23.315C88.9648 23.2938 89.2865 23.3677 89.5674 23.5277C89.8483 23.6877 90.076 23.9267 90.2222 24.215L86.4222 25.795ZM81.8022 29.915H83.6722V17.415H81.8022V29.915ZM78.7422 22.615H78.6722C78.3904 22.2999 78.0451 22.048 77.6591 21.8756C77.2731 21.7033 76.855 21.6145 76.4322 21.615C75.3394 21.668 74.3089 22.1395 73.5542 22.9316C72.7995 23.7238 72.3786 24.7759 72.3786 25.87C72.3786 26.9641 72.7995 28.0163 73.5542 28.8085C74.3089 29.6006 75.3394 30.072 76.4322 30.125C76.856 30.1322 77.2762 30.0463 77.6632 29.8735C78.0502 29.7008 78.3946 29.4453 78.6722 29.125H78.7322V29.735C78.7322 31.365 77.8622 32.235 76.4622 32.235C75.9959 32.2241 75.5434 32.0747 75.1624 31.8058C74.7813 31.5369 74.4888 31.1607 74.3222 30.725L72.6922 31.405C72.999 32.1514 73.5218 32.7891 74.1936 33.2363C74.8653 33.6835 75.6553 33.9199 76.4622 33.915C78.6522 33.915 80.4622 32.625 80.4622 29.485V21.915H78.7422V22.615ZM76.6022 28.495C75.9572 28.4382 75.3568 28.1418 74.9195 27.6642C74.4822 27.1866 74.2396 26.5626 74.2396 25.915C74.2396 25.2675 74.4822 24.6434 74.9195 24.1659C75.3568 23.6883 75.9572 23.3919 76.6022 23.335C76.922 23.3514 77.2353 23.4317 77.5237 23.5711C77.812 23.7104 78.0695 23.9061 78.2811 24.1465C78.4926 24.387 78.6539 24.6673 78.7554 24.971C78.8569 25.2747 78.8967 25.5957 78.8722 25.915C78.8995 26.2357 78.8615 26.5586 78.7604 26.8642C78.6593 27.1698 78.4973 27.4516 78.2842 27.6928C78.0711 27.934 77.8112 28.1294 77.5204 28.2673C77.2296 28.4052 76.9138 28.4827 76.5922 28.495H76.6022ZM100.982 17.415H96.5122V29.915H98.3822V25.175H100.992C101.525 25.2133 102.06 25.1414 102.564 24.9638C103.068 24.7861 103.53 24.5066 103.921 24.1425C104.312 23.7785 104.624 23.3378 104.838 22.8479C105.051 22.358 105.161 21.8294 105.161 21.295C105.161 20.7607 105.051 20.2321 104.838 19.7422C104.624 19.2523 104.312 18.8116 103.921 18.4475C103.53 18.0835 103.068 17.8039 102.564 17.6263C102.06 17.4487 101.525 17.3767 100.992 17.415H100.982ZM100.982 23.415H98.3722V19.155H101.022C101.591 19.155 102.137 19.381 102.539 19.7833C102.941 20.1856 103.167 20.7311 103.167 21.3C103.167 21.8689 102.941 22.4145 102.539 22.8168C102.137 23.219 101.591 23.445 101.022 23.445L100.982 23.415ZM112.512 21.615C111.831 21.5743 111.154 21.7334 110.562 22.0728C109.97 22.4121 109.491 22.9169 109.182 23.525L110.842 24.215C111.006 23.9134 111.254 23.6658 111.556 23.5025C111.857 23.3391 112.2 23.2671 112.542 23.295C112.78 23.2673 113.02 23.2871 113.25 23.3534C113.479 23.4196 113.694 23.5309 113.88 23.6807C114.066 23.8306 114.22 24.0161 114.334 24.2263C114.448 24.4365 114.519 24.6672 114.542 24.905V25.035C113.942 24.717 113.272 24.5522 112.592 24.555C110.802 24.555 108.992 25.555 108.992 27.365C109.01 27.751 109.105 28.1294 109.271 28.4781C109.438 28.8267 109.672 29.1384 109.961 29.3948C110.25 29.6512 110.588 29.847 110.954 29.9707C111.32 30.0944 111.707 30.1435 112.092 30.115C112.563 30.1489 113.034 30.0553 113.457 29.8441C113.879 29.633 114.237 29.3121 114.492 28.915H114.552V29.915H116.352V25.105C116.352 22.915 114.692 21.645 112.562 21.645L112.512 21.615ZM112.282 28.465C111.672 28.465 110.822 28.155 110.822 27.405C110.822 26.405 111.882 26.075 112.822 26.075C113.416 26.0604 114.003 26.2054 114.522 26.495C114.46 27.0364 114.204 27.537 113.801 27.9045C113.399 28.272 112.877 28.4818 112.332 28.495L112.282 28.465ZM122.912 21.915L120.772 27.335H120.712L118.492 21.915H116.492L119.822 29.495L117.922 33.705H119.872L124.992 21.915H122.912ZM106.102 29.915H107.972V17.415H106.102V29.915Z" fill="#F3F3F3"/>
<path d="M9.61226 7.45465C9.28633 7.84575 9.12182 8.34644 9.15226 8.85464V30.9746C9.12182 31.4829 9.28633 31.9835 9.61226 32.3746L9.68226 32.4446L22.0723 20.0646V19.7746L9.68226 7.38464L9.61226 7.45465Z" fill="url(#paint0_linear_658_1027)"/>
<path d="M26.1725 24.1946L22.0725 20.0646V19.7746L26.1725 15.6346L26.2625 15.6846L31.1725 18.4746C32.5725 19.2646 32.5725 20.5646 31.1725 21.3646L26.2825 24.1446L26.1725 24.1946Z" fill="url(#paint1_linear_658_1027)"/>
<path d="M26.2916 24.1349L22.0716 19.9149L9.61157 32.3749C9.89693 32.6258 10.261 32.7691 10.6408 32.78C11.0205 32.791 11.3922 32.6689 11.6916 32.4349L26.3016 24.1349" fill="url(#paint2_linear_658_1027)"/>
<path d="M26.2918 15.6945L11.6818 7.39448C11.3825 7.16049 11.0108 7.03843 10.631 7.04938C10.2512 7.06034 9.88717 7.20363 9.60181 7.45448L22.0718 19.9145L26.2918 15.6945Z" fill="url(#paint3_linear_658_1027)"/>
<path opacity="0.2" d="M26.1716 24.0448L11.6816 32.2948C11.3929 32.5107 11.0421 32.6273 10.6816 32.6273C10.3211 32.6273 9.97028 32.5107 9.68157 32.2948L9.61157 32.3648L9.68157 32.4348C9.96963 32.6522 10.3207 32.7698 10.6816 32.7698C11.0425 32.7698 11.3935 32.6522 11.6816 32.4348L26.2916 24.1348L26.1716 24.0448Z" fill="black"/>
<path opacity="0.12" d="M9.61226 32.2348C9.28633 31.8437 9.12182 31.343 9.15226 30.8348V30.9848C9.12182 31.493 9.28633 31.9937 9.61226 32.3848L9.68226 32.3148L9.61226 32.2348Z" fill="black"/>
<path opacity="0.12" d="M31.1721 21.2149L26.1721 24.0449L26.2621 24.1349L31.1721 21.3549C31.4507 21.224 31.6899 21.022 31.8654 20.7692C32.041 20.5163 32.1468 20.2217 32.1721 19.9149C32.1159 20.1936 31.9965 20.4557 31.8231 20.6811C31.6498 20.9065 31.4271 21.0891 31.1721 21.2149Z" fill="black"/>
<path opacity="0.25" d="M11.6828 7.53534L31.1728 18.6153C31.4278 18.7412 31.6505 18.9238 31.8239 19.1492C31.9972 19.3745 32.1166 19.6366 32.1728 19.9153C32.1475 19.6086 32.0417 19.3139 31.8661 19.0611C31.6906 18.8083 31.4514 18.6062 31.1728 18.4753L11.6828 7.39534C10.2828 6.60534 9.14282 7.26534 9.14282 8.86534V9.01534C9.17282 7.40534 10.2928 6.74534 11.6828 7.53534Z" fill="#F3F3F3"/>
<defs>
<linearGradient id="paint0_linear_658_1027" x1="20.9723" y1="8.62464" x2="4.19227" y2="25.4046" gradientUnits="userSpaceOnUse">
<stop stop-color="#00A0FF"/>
<stop offset="0.01" stop-color="#00A1FF"/>
<stop offset="0.26" stop-color="#00BEFF"/>
<stop offset="0.51" stop-color="#00D2FF"/>
<stop offset="0.76" stop-color="#00DFFF"/>
<stop offset="1" stop-color="#00E3FF"/>
</linearGradient>
<linearGradient id="paint1_linear_658_1027" x1="33.0025" y1="19.9146" x2="8.81251" y2="19.9146" gradientUnits="userSpaceOnUse">
<stop stop-color="#FFE000"/>
<stop offset="0.41" stop-color="#FFBD00"/>
<stop offset="0.78" stop-color="#FFA500"/>
<stop offset="1" stop-color="#FF9C00"/>
</linearGradient>
<linearGradient id="paint2_linear_658_1027" x1="24.0016" y1="22.2149" x2="1.24157" y2="44.9649" gradientUnits="userSpaceOnUse">
<stop stop-color="#FF3A44"/>
<stop offset="1" stop-color="#C31162"/>
</linearGradient>
<linearGradient id="paint3_linear_658_1027" x1="6.47181" y1="0.0944772" x2="16.6318" y2="10.2545" gradientUnits="userSpaceOnUse">
<stop stop-color="#32A071"/>
<stop offset="0.07" stop-color="#2DA771"/>
<stop offset="0.48" stop-color="#15CF74"/>
<stop offset="0.8" stop-color="#06E775"/>
<stop offset="1" stop-color="#00F076"/>
</linearGradient>
</defs>
</svg>
