<svg width="135" height="40" viewBox="0 0 135 40" fill="none" xmlns="http://www.w3.org/2000/svg">
<path d="M134.286 35.9904C134.286 38.2056 132.557 40 130.419 40H3.87198C1.73478 40 0 38.2056 0 35.9904V4.01487C0 1.80067 1.73478 0 3.87198 0H130.418C132.557 0 134.285 1.80067 134.285 4.01487L134.286 35.9904Z" fill="black"/>
<path d="M30.2464 20.8811C30.2149 17.3827 33.111 15.6807 33.2434 15.6014C31.6032 13.2102 29.0611 12.8834 28.1678 12.8574C26.0326 12.6327 23.9616 14.135 22.8739 14.135C21.7646 14.135 20.0897 12.8791 18.2846 12.916C15.9617 12.9518 13.7886 14.2967 12.5968 16.3851C10.1371 20.6434 11.9715 26.9011 14.3281 30.3431C15.5069 32.0288 16.8844 33.911 18.6873 33.8448C20.4512 33.7721 21.1101 32.7203 23.2387 32.7203C25.3477 32.7203 25.9664 33.8448 27.8052 33.8025C29.6983 33.7721 30.8901 32.1092 32.0277 30.4082C33.3899 28.4761 33.937 26.5733 33.9587 26.4756C33.9142 26.4604 30.2822 25.0743 30.2464 20.8811Z" fill="#F3F3F3"/>
<path d="M26.7732 10.5926C27.7219 9.40622 28.371 7.79214 28.1908 6.15417C26.8177 6.21496 25.1005 7.10396 24.1116 8.26432C23.2368 9.28682 22.4552 10.9628 22.6571 12.5389C24.1996 12.6539 25.7833 11.7606 26.7732 10.5926Z" fill="#F3F3F3"/>
<path d="M54.0526 29.935H51.7808L50.5363 26.0245H46.2107L45.0253 29.935H42.8135L47.099 16.6221H49.746L54.0526 29.935ZM50.1612 24.3839L49.0358 20.9076C48.9167 20.5525 48.6936 19.7162 48.3645 18.3997H48.3245C48.1934 18.9659 47.9824 19.8022 47.6923 20.9076L46.5869 24.3839H50.1612Z" fill="#F3F3F3"/>
<path d="M65.0735 25.0172C65.0735 26.6498 64.6323 27.9403 63.75 28.8876C62.9597 29.7309 61.9784 30.1521 60.8069 30.1521C59.5425 30.1521 58.6341 29.6979 58.0809 28.7896H58.0409V33.8465H55.9081V23.4957C55.9081 22.4693 55.8811 21.4159 55.8291 20.3355H57.7048L57.8238 21.8571H57.8638C58.5751 20.7106 59.6545 20.1384 61.103 20.1384C62.2355 20.1384 63.1808 20.5856 63.9371 21.4809C64.6954 22.3772 65.0735 23.5557 65.0735 25.0172ZM62.9007 25.0952C62.9007 24.1609 62.6906 23.3906 62.2685 22.7844C61.8073 22.1522 61.1881 21.8361 60.4118 21.8361C59.8856 21.8361 59.4074 22.0121 58.9803 22.3592C58.5521 22.7094 58.272 23.1665 58.1409 23.7327C58.0749 23.9968 58.0419 24.2129 58.0419 24.383V25.9836C58.0419 26.6818 58.256 27.271 58.6841 27.7522C59.1123 28.2334 59.6685 28.4735 60.3528 28.4735C61.1561 28.4735 61.7813 28.1634 62.2284 27.5451C62.6766 26.9259 62.9007 26.1096 62.9007 25.0952Z" fill="#F3F3F3"/>
<path d="M76.1145 25.0172C76.1145 26.6498 75.6733 27.9403 74.79 28.8876C74.0007 29.7309 73.0193 30.1521 71.8479 30.1521C70.5835 30.1521 69.6751 29.6979 69.1229 28.7896H69.0829V33.8465H66.9501V23.4957C66.9501 22.4693 66.9231 21.4159 66.8711 20.3355H68.7468L68.8658 21.8571H68.9058C69.6161 20.7106 70.6955 20.1384 72.145 20.1384C73.2764 20.1384 74.2218 20.5856 74.9801 21.4809C75.7353 22.3772 76.1145 23.5557 76.1145 25.0172ZM73.9417 25.0952C73.9417 24.1609 73.7306 23.3906 73.3085 22.7844C72.8473 22.1522 72.2301 21.8361 71.4528 21.8361C70.9256 21.8361 70.4484 22.0121 70.0203 22.3592C69.5921 22.7094 69.313 23.1665 69.1819 23.7327C69.1169 23.9968 69.0829 24.2129 69.0829 24.383V25.9836C69.0829 26.6818 69.297 27.271 69.7231 27.7522C70.1513 28.2324 70.7075 28.4735 71.3938 28.4735C72.1971 28.4735 72.8223 28.1634 73.2694 27.5451C73.7176 26.9259 73.9417 26.1096 73.9417 25.0952Z" fill="#F3F3F3"/>
<path d="M88.4592 26.2017C88.4592 27.3341 88.0661 28.2555 87.2768 28.9667C86.4095 29.744 85.202 30.1322 83.6505 30.1322C82.2179 30.1322 81.0695 29.856 80.2002 29.3028L80.6944 27.5252C81.6307 28.0914 82.6581 28.3755 83.7775 28.3755C84.5808 28.3755 85.206 28.1934 85.6552 27.8313C86.1024 27.4692 86.3254 26.983 86.3254 26.3768C86.3254 25.8366 86.1414 25.3814 85.7722 25.0123C85.4051 24.6431 84.7919 24.3 83.9356 23.9829C81.6047 23.1136 80.4403 21.8401 80.4403 20.1655C80.4403 19.0711 80.8484 18.1738 81.6657 17.4755C82.48 16.7763 83.5664 16.4271 84.9249 16.4271C86.1364 16.4271 87.1427 16.6382 87.946 17.0594L87.4128 18.798C86.6626 18.3898 85.8143 18.1858 84.8649 18.1858C84.1146 18.1858 83.5284 18.3708 83.1083 18.739C82.7531 19.0681 82.5751 19.4692 82.5751 19.9444C82.5751 20.4706 82.7781 20.9058 83.1863 21.2479C83.5414 21.564 84.1867 21.9061 85.123 22.2753C86.2684 22.7364 87.1097 23.2756 87.6509 23.8939C88.1901 24.5101 88.4592 25.2814 88.4592 26.2017Z" fill="#F3F3F3"/>
<path d="M95.5107 21.9362H93.1598V26.5969C93.1598 27.7823 93.574 28.3746 94.4043 28.3746C94.7854 28.3746 95.1015 28.3415 95.3516 28.2755L95.4107 29.8951C94.9905 30.0522 94.4373 30.1312 93.752 30.1312C92.9097 30.1312 92.2515 29.8741 91.7763 29.3609C91.3032 28.8467 91.0651 27.9844 91.0651 26.773V21.9342H89.6646V20.3336H91.0651V18.576L93.1598 17.9437V20.3336H95.5107V21.9362Z" fill="#F3F3F3"/>
<path d="M106.118 25.0562C106.118 26.5317 105.696 27.7432 104.853 28.6905C103.97 29.6659 102.798 30.1521 101.336 30.1521C99.9275 30.1521 98.8061 29.6849 97.9698 28.7506C97.1335 27.8162 96.7153 26.6368 96.7153 25.2153C96.7153 23.7277 97.1455 22.5093 98.0088 21.5619C98.8701 20.6136 100.033 20.1394 101.494 20.1394C102.903 20.1394 104.036 20.6066 104.891 21.5419C105.71 22.4493 106.118 23.6207 106.118 25.0562ZM103.905 25.1252C103.905 24.2399 103.716 23.4806 103.333 22.8474C102.886 22.0811 102.246 21.699 101.418 21.699C100.561 21.699 99.9095 22.0821 99.4623 22.8474C99.0792 23.4816 98.8901 24.2529 98.8901 25.1652C98.8901 26.0506 99.0792 26.8099 99.4623 27.4421C99.9235 28.2084 100.568 28.5905 101.399 28.5905C102.213 28.5905 102.853 28.2004 103.314 27.4221C103.707 26.7768 103.905 26.0096 103.905 25.1252Z" fill="#F3F3F3"/>
<path d="M113.05 22.2112C112.839 22.1722 112.614 22.1522 112.378 22.1522C111.628 22.1522 111.048 22.4353 110.64 23.0025C110.284 23.5027 110.106 24.1349 110.106 24.8982V29.935H107.975L107.995 23.3586C107.995 22.2522 107.968 21.2448 107.915 20.3365H109.772L109.85 22.1732H109.909C110.134 21.5419 110.489 21.0338 110.976 20.6526C111.451 20.3095 111.964 20.1384 112.517 20.1384C112.714 20.1384 112.892 20.1524 113.05 20.1774V22.2112Z" fill="#F3F3F3"/>
<path d="M122.589 24.6812C122.589 25.0633 122.564 25.3854 122.511 25.6485H116.112C116.137 26.5969 116.446 27.3221 117.041 27.8223C117.58 28.2695 118.277 28.4936 119.133 28.4936C120.081 28.4936 120.945 28.3425 121.722 28.0394L122.057 29.5199C121.148 29.9161 120.076 30.1131 118.838 30.1131C117.35 30.1131 116.181 29.675 115.331 28.7997C114.483 27.9243 114.058 26.7489 114.058 25.2744C114.058 23.8268 114.453 22.6214 115.244 21.66C116.072 20.6337 117.192 20.1205 118.6 20.1205C119.984 20.1205 121.031 20.6337 121.742 21.66C122.306 22.4753 122.589 23.4837 122.589 24.6812ZM120.555 24.128C120.569 23.4957 120.43 22.9495 120.141 22.4884C119.772 21.8951 119.205 21.599 118.441 21.599C117.744 21.599 117.177 21.8881 116.744 22.4683C116.388 22.9295 116.177 23.4827 116.112 24.127H120.555V24.128Z" fill="#F3F3F3"/>
<path d="M48.1894 9.6085C48.1894 10.7859 47.8363 11.6723 47.1311 12.2675C46.4778 12.8167 45.5495 13.0918 44.347 13.0918C43.7508 13.0918 43.2406 13.0658 42.8135 13.0137V6.58039C43.3707 6.49035 43.9709 6.44434 44.6191 6.44434C45.7646 6.44434 46.6279 6.69343 47.2101 7.19161C47.8623 7.75482 48.1894 8.56011 48.1894 9.6085ZM47.084 9.63751C47.084 8.87423 46.882 8.28901 46.4778 7.88086C46.0737 7.47371 45.4835 7.26964 44.7062 7.26964C44.3761 7.26964 44.0949 7.29165 43.8619 7.33766V12.2285C43.9909 12.2485 44.227 12.2575 44.5701 12.2575C45.3724 12.2575 45.9916 12.0344 46.4278 11.5882C46.864 11.1421 47.084 10.4918 47.084 9.63751Z" fill="#F3F3F3"/>
<path d="M54.0508 10.6369C54.0508 11.3622 53.8437 11.9564 53.4296 12.4226C52.9954 12.9018 52.4202 13.1408 51.702 13.1408C51.0097 13.1408 50.4585 12.9118 50.0474 12.4516C49.6372 11.9924 49.4321 11.4132 49.4321 10.715C49.4321 9.98469 49.6432 9.38547 50.0674 8.9203C50.4915 8.45513 51.0617 8.22205 51.78 8.22205C52.4722 8.22205 53.0284 8.45113 53.4496 8.9103C53.8497 9.35646 54.0508 9.93267 54.0508 10.6369ZM52.9634 10.6709C52.9634 10.2358 52.8694 9.86265 52.6823 9.55153C52.4622 9.1754 52.1491 8.98733 51.742 8.98733C51.3208 8.98733 51.0007 9.1754 50.7806 9.55153C50.5926 9.86265 50.4995 10.2418 50.4995 10.69C50.4995 11.1251 50.5936 11.4982 50.7806 11.8094C51.0077 12.1855 51.3238 12.3736 51.732 12.3736C52.1321 12.3736 52.4462 12.1825 52.6723 11.7994C52.8664 11.4822 52.9634 11.1061 52.9634 10.6709Z" fill="#F3F3F3"/>
<path d="M61.9097 8.31799L60.4341 13.0337H59.4738L58.8625 10.986C58.7075 10.4748 58.5814 9.9666 58.4834 9.46241H58.4644C58.3734 9.9806 58.2473 10.4878 58.0853 10.986L57.436 13.0337H56.4647L55.0771 8.31799H56.1545L56.6877 10.5598C56.8168 11.09 56.9228 11.5952 57.0079 12.0734H57.0269C57.1049 11.6792 57.2339 11.177 57.416 10.5698L58.0853 8.31899H58.9396L59.5808 10.5218C59.7359 11.059 59.8619 11.5762 59.9589 12.0744H59.9879C60.059 11.5892 60.166 11.072 60.3081 10.5218L60.8803 8.31899H61.9097V8.31799Z" fill="#F3F3F3"/>
<path d="M67.3444 13.0339H66.2961V10.3329C66.2961 9.50059 65.9799 9.08443 65.3457 9.08443C65.0346 9.08443 64.7835 9.19848 64.5884 9.42756C64.3954 9.65664 64.2973 9.92674 64.2973 10.2359V13.0329H63.2489V9.66565C63.2489 9.25149 63.2359 8.80233 63.2109 8.31615H64.1323L64.1813 9.05342H64.2103C64.3323 8.82434 64.5144 8.63527 64.7535 8.48421C65.0376 8.30815 65.3557 8.21912 65.7038 8.21912C66.144 8.21912 66.5101 8.36117 66.8013 8.64627C67.1634 8.9954 67.3444 9.51659 67.3444 10.2088V13.0339Z" fill="#F3F3F3"/>
<path d="M70.2354 13.0338H69.188V6.1543H70.2354V13.0338Z" fill="#F3F3F3"/>
<path d="M76.4078 10.6369C76.4078 11.3622 76.2007 11.9564 75.7865 12.4226C75.3524 12.9018 74.7762 13.1408 74.0589 13.1408C73.3656 13.1408 72.8144 12.9118 72.4043 12.4516C71.9941 11.9924 71.7891 11.4132 71.7891 10.715C71.7891 9.98469 72.0001 9.38547 72.4243 8.9203C72.8485 8.45513 73.4187 8.22205 74.1359 8.22205C74.8292 8.22205 75.3844 8.45113 75.8065 8.9103C76.2067 9.35646 76.4078 9.93267 76.4078 10.6369ZM75.3194 10.6709C75.3194 10.2358 75.2253 9.86265 75.0383 9.55153C74.8192 9.1754 74.5051 8.98733 74.0989 8.98733C73.6768 8.98733 73.3566 9.1754 73.1376 9.55153C72.9495 9.86265 72.8565 10.2418 72.8565 10.69C72.8565 11.1251 72.9505 11.4982 73.1376 11.8094C73.3646 12.1855 73.6808 12.3736 74.0889 12.3736C74.4891 12.3736 74.8022 12.1825 75.0282 11.7994C75.2233 11.4822 75.3194 11.1061 75.3194 10.6709Z" fill="#F3F3F3"/>
<path d="M81.4818 13.0338H80.5404L80.4624 12.4906H80.4334C80.1113 12.9238 79.6521 13.1408 79.0559 13.1408C78.6107 13.1408 78.2506 12.9978 77.9795 12.7137C77.7334 12.4556 77.6104 12.1345 77.6104 11.7533C77.6104 11.1771 77.8504 10.738 78.3336 10.4339C78.8158 10.1297 79.494 9.98069 80.3674 9.98769V9.89966C80.3674 9.27843 80.0412 8.96832 79.388 8.96832C78.9228 8.96832 78.5127 9.08536 78.1586 9.31745L77.9455 8.62919C78.3836 8.3581 78.9248 8.22205 79.5631 8.22205C80.7955 8.22205 81.4137 8.87228 81.4137 10.1728V11.9094C81.4137 12.3806 81.4368 12.7557 81.4818 13.0338ZM80.3934 11.4132V10.6859C79.2369 10.6659 78.6587 10.9831 78.6587 11.6363C78.6587 11.8824 78.7248 12.0665 78.8598 12.1895C78.9949 12.3125 79.1669 12.3736 79.372 12.3736C79.6021 12.3736 79.8172 12.3005 80.0132 12.1555C80.2103 12.0094 80.3313 11.8244 80.3764 11.5973C80.3874 11.5463 80.3934 11.4842 80.3934 11.4132Z" fill="#F3F3F3"/>
<path d="M87.4387 13.0338H86.5083L86.4593 12.2765H86.4303C86.1332 12.8528 85.627 13.1409 84.9157 13.1409C84.3475 13.1409 83.8744 12.9178 83.4992 12.4716C83.1241 12.0255 82.937 11.4462 82.937 10.735C82.937 9.9717 83.1401 9.35347 83.5482 8.8813C83.9434 8.44113 84.4276 8.22105 85.0038 8.22105C85.637 8.22105 86.0802 8.43413 86.3323 8.86129H86.3523V6.1543H87.4016V11.7634C87.4016 12.2225 87.4137 12.6457 87.4387 13.0338ZM86.3523 11.0451V10.2588C86.3523 10.1228 86.3423 10.0127 86.3232 9.92868C86.2642 9.67659 86.1372 9.46451 85.9441 9.29345C85.749 9.12239 85.5139 9.03635 85.2428 9.03635C84.8517 9.03635 84.5456 9.19141 84.3205 9.50252C84.0974 9.81364 83.9844 10.2108 83.9844 10.696C83.9844 11.1621 84.0914 11.5403 84.3065 11.8314C84.5336 12.1415 84.8397 12.2965 85.2228 12.2965C85.567 12.2965 85.8421 12.1675 86.0512 11.9084C86.2532 11.6693 86.3523 11.3812 86.3523 11.0451Z" fill="#F3F3F3"/>
<path d="M96.4048 10.6369C96.4048 11.3622 96.1978 11.9564 95.7836 12.4226C95.3494 12.9018 94.7752 13.1408 94.056 13.1408C93.3647 13.1408 92.8135 12.9118 92.4014 12.4516C91.9912 11.9924 91.7861 11.4132 91.7861 10.715C91.7861 9.98469 91.9972 9.38547 92.4214 8.9203C92.8455 8.45513 93.4157 8.22205 94.135 8.22205C94.8262 8.22205 95.3835 8.45113 95.8036 8.9103C96.2038 9.35646 96.4048 9.93267 96.4048 10.6369ZM95.3184 10.6709C95.3184 10.2358 95.2244 9.86265 95.0373 9.55153C94.8162 9.1754 94.5041 8.98733 94.096 8.98733C93.6758 8.98733 93.3557 9.1754 93.1346 9.55153C92.9466 9.86265 92.8535 10.2418 92.8535 10.69C92.8535 11.1251 92.9476 11.4982 93.1346 11.8094C93.3617 12.1855 93.6778 12.3736 94.086 12.3736C94.4861 12.3736 94.8012 12.1825 95.0273 11.7994C95.2204 11.4822 95.3184 11.1061 95.3184 10.6709Z" fill="#F3F3F3"/>
<path d="M102.042 13.0339H100.995V10.3329C100.995 9.50059 100.679 9.08443 100.043 9.08443C99.7323 9.08443 99.4812 9.19848 99.2872 9.42756C99.0931 9.65664 98.9961 9.92674 98.9961 10.2359V13.0329H97.9467V9.66565C97.9467 9.25149 97.9347 8.80233 97.9097 8.31615H98.83L98.879 9.05342H98.908C99.0311 8.82434 99.2131 8.63527 99.4512 8.48421C99.7363 8.30815 100.053 8.21912 100.403 8.21912C100.842 8.21912 101.208 8.36117 101.499 8.64627C101.862 8.9954 102.042 9.51659 102.042 10.2088V13.0339Z" fill="#F3F3F3"/>
<path d="M109.098 9.10327H107.943V11.3941C107.943 11.9763 108.148 12.2674 108.554 12.2674C108.743 12.2674 108.899 12.2514 109.022 12.2184L109.049 13.0137C108.842 13.0917 108.569 13.1308 108.234 13.1308C107.82 13.1308 107.498 13.0047 107.265 12.7526C107.031 12.5005 106.915 12.0764 106.915 11.4811V9.10327H106.226V8.31799H106.915V7.45367L107.942 7.14355V8.31699H109.097V9.10327H109.098Z" fill="#F3F3F3"/>
<path d="M114.648 13.0338H113.598V10.3528C113.598 9.50753 113.282 9.08437 112.649 9.08437C112.163 9.08437 111.831 9.32946 111.649 9.81964C111.618 9.92268 111.6 10.0487 111.6 10.1968V13.0328H110.552V6.1543H111.6V8.99634H111.62C111.95 8.47915 112.423 8.22105 113.036 8.22105C113.47 8.22105 113.829 8.36311 114.115 8.64821C114.47 9.00334 114.648 9.53154 114.648 10.2298V13.0338Z" fill="#F3F3F3"/>
<path d="M120.373 10.4523C120.373 10.6404 120.359 10.7985 120.334 10.9275H117.19C117.204 11.3937 117.354 11.7488 117.645 11.9949C117.911 12.215 118.254 12.325 118.675 12.325C119.14 12.325 119.564 12.251 119.946 12.102L120.11 12.8302C119.663 13.0243 119.137 13.1213 118.528 13.1213C117.797 13.1213 117.222 12.9062 116.806 12.4761C116.388 12.0459 116.181 11.4687 116.181 10.7445C116.181 10.0332 116.374 9.44097 116.763 8.9688C117.169 8.46462 117.718 8.21252 118.411 8.21252C119.09 8.21252 119.605 8.46462 119.953 8.9688C120.234 9.36895 120.373 9.86413 120.373 10.4523ZM119.373 10.1812C119.381 9.87013 119.312 9.60203 119.17 9.37595C118.988 9.08484 118.711 8.93879 118.335 8.93879C117.993 8.93879 117.714 9.08084 117.501 9.36595C117.327 9.59303 117.224 9.86413 117.19 10.1812H119.373Z" fill="#F3F3F3"/>
</svg>
