<svg width="35" height="28" viewBox="0 0 35 28" fill="none" xmlns="http://www.w3.org/2000/svg">
<path d="M25.8729 28C29.3879 24.4719 32.3901 20.8429 34.5442 17.0467C35.3811 15.5722 34.7464 13.6279 32.9823 12.9899C31.2183 12.3519 28.2642 11.8377 22.6334 13.3075C20.7446 13.8007 17.0134 15.0907 13.7066 15.7572C11.5045 16.2013 12.1924 14.7334 12.6067 14.0412C14.6216 10.6742 18.5948 6.59033 21.8119 4.74267C22.6684 4.2504 25.7071 2.80533 31.7965 6.98031C28.8966 3.38635 24.5614 0.732091 22.7656 0.166958C21.9847 -0.0787115 21.1426 -0.050223 20.3738 0.232344C13.5399 2.74135 5.29269 10.0666 0.596942 18.0639C-0.786934 20.4207 0.319043 22.2693 3.04943 22.1595C8.8278 21.9265 18.8834 16.5582 25.3204 14.0473C26.4254 13.6162 27.6309 14.399 27.6804 15.5839C27.8284 19.1223 26.9929 23.4472 25.8729 28Z" fill="#0099FF"/>
</svg>
