<svg width="182" height="32" viewBox="0 0 182 32" fill="none" xmlns="http://www.w3.org/2000/svg">
<path d="M29.569 32C33.5862 27.9679 37.0173 23.8204 39.479 19.4819C40.4356 17.7968 39.7102 15.5747 37.6941 14.8456C35.678 14.1164 32.3019 13.5287 25.8667 15.2085C23.7082 15.7722 19.4438 17.2465 15.6647 18.0082C13.148 18.5158 13.9342 16.8382 14.4077 16.0471C16.7104 12.1991 21.2512 7.5318 24.9278 5.42019C25.9068 4.8576 29.3795 3.2061 36.3389 7.9775C33.0247 3.87011 28.0702 0.836676 26.0178 0.190809C25.1253 -0.089956 24.1629 -0.0573977 23.2843 0.265536C15.4742 3.13297 6.04878 11.5047 0.682219 20.6445C-0.899353 23.3379 0.364621 25.4506 3.48506 25.3252C10.0889 25.0588 21.5811 18.9236 28.9375 16.054C30.2005 15.5614 31.5781 16.456 31.6347 17.8102C31.8039 21.854 30.849 26.7968 29.569 32Z" fill="#0099FF"/>
<path d="M57.9006 9.30933V10.4504H53.6081V22.7106H52.2935V10.4504H48.0002V9.30933H57.9006Z" fill="#060606"/>
<path d="M59.989 9.31006H61.3044V22.7105H59.989V9.31006Z" fill="#060606"/>
<path d="M70.353 22.9999C69.4886 22.9999 68.6856 22.8452 67.9448 22.5358C67.204 22.2263 66.559 21.7753 66.0114 21.1819C65.463 20.5892 65.0316 19.8583 64.7165 18.9873C64.3997 18.1172 64.2417 17.121 64.2417 15.9996C64.2417 14.8782 64.4128 13.882 64.7541 13.0119C65.0954 12.1418 65.5506 11.4109 66.1178 10.8174C66.6851 10.2248 67.3424 9.77621 68.0897 9.47334C68.8379 9.17048 69.6179 9.01904 70.4308 9.01904C70.9325 9.01904 71.3901 9.05097 71.8035 9.11564C72.2152 9.1803 72.5762 9.26052 72.8856 9.3571C73.195 9.45369 73.4594 9.55029 73.6779 9.64769C73.8981 9.74428 74.0651 9.83105 74.1813 9.908L73.7557 11.0499C73.4332 10.8559 73.0239 10.666 72.5279 10.4793C72.0318 10.2919 71.4163 10.1986 70.6812 10.1986C69.843 10.1986 69.1121 10.3402 68.4867 10.6242C67.8613 10.9074 67.3358 11.3069 66.911 11.8226C66.4845 12.3383 66.1661 12.9514 65.9533 13.6602C65.7405 14.3691 65.6341 15.1557 65.6341 16.0193C65.6341 16.9082 65.7405 17.7112 65.9533 18.4266C66.1661 19.1421 66.4788 19.751 66.8913 20.2536C67.3039 20.757 67.8098 21.1434 68.4089 21.4143C69.0081 21.6853 69.6949 21.8203 70.4684 21.8203C71.3197 21.8203 72.0318 21.7401 72.6056 21.5789C73.1794 21.4176 73.6141 21.2531 73.9104 21.0853L74.2779 22.2067C74.1879 22.2714 74.0332 22.3459 73.8138 22.4293C73.5945 22.5137 73.317 22.6004 72.9822 22.6905C72.6474 22.7805 72.2602 22.855 71.8223 22.9131C71.3835 22.9712 70.8941 22.9999 70.353 22.9999Z" fill="#060606"/>
<path d="M84.7415 22.7106C84.3036 22.0386 83.8109 21.3739 83.2624 20.7158C82.7148 20.0577 82.1377 19.4381 81.532 18.8569C80.9255 18.2757 80.3099 17.7461 79.6845 17.2689C79.0592 16.7909 78.4567 16.3906 77.8764 16.0681V22.7106H76.5618V9.30933H77.8764V15.5459C78.3667 15.1079 78.9118 14.6029 79.5118 14.0307C80.1118 13.4577 80.7053 12.8815 81.293 12.3019C81.8791 11.7232 82.4316 11.1699 82.9473 10.6419C83.4638 10.114 83.8763 9.67031 84.1857 9.30933H85.7713C85.3972 9.70878 84.9454 10.1819 84.4166 10.7287C83.8886 11.2763 83.3263 11.8395 82.7328 12.4182C82.1394 12.9977 81.5492 13.5666 80.9623 14.1265C80.3754 14.6864 79.8499 15.1791 79.385 15.604C79.759 15.8364 80.1617 16.1238 80.5939 16.4659C81.0253 16.8081 81.4641 17.1821 81.9085 17.5881C82.3538 17.9958 82.7917 18.4214 83.2231 18.8667C83.6553 19.312 84.0613 19.7614 84.4419 20.2124C84.8218 20.6643 85.1639 21.103 85.4668 21.5295C85.7696 21.9551 86.0177 22.3496 86.2116 22.7106H84.7415Z" fill="#060606"/>
<path d="M88.144 22.7106V9.30933H95.8793V10.4504H89.4586V15.1112H95.1828V16.2326H89.4586V21.5696H96.3811V22.7106H88.144Z" fill="#060606"/>
<path d="M107.384 9.30933V10.4504H103.091V22.7106H101.777V10.4504H97.4834V9.30933H107.384Z" fill="#060606"/>
<path d="M112.934 20.4096C113.36 20.4096 113.711 20.3736 113.989 20.3032C114.265 20.232 114.488 20.1354 114.656 20.0126C114.823 19.8907 114.939 19.7458 115.004 19.578C115.068 19.4102 115.1 19.2236 115.1 19.0165C115.1 18.5785 114.894 18.2143 114.482 17.9245C114.069 17.6339 113.36 17.3213 112.355 16.9865C111.916 16.8318 111.477 16.655 111.04 16.4552C110.601 16.2547 110.208 16.0034 109.86 15.7005C109.512 15.3977 109.228 15.0301 109.01 14.5979C108.789 14.1666 108.68 13.6411 108.68 13.0222C108.68 12.4034 108.797 11.846 109.028 11.3499C109.261 10.8531 109.589 10.4315 110.014 10.0836C110.44 9.73493 110.956 9.46727 111.562 9.28064C112.167 9.09402 112.85 8.99988 113.611 8.99988C114.513 8.99988 115.294 9.09729 115.951 9.29047C116.608 9.48364 117.151 9.69647 117.576 9.92812L116.706 12.3068C116.331 12.1136 115.916 11.9426 115.458 11.7944C115 11.6463 114.45 11.5718 113.805 11.5718C113.083 11.5718 112.564 11.6716 112.249 11.8722C111.933 12.0719 111.774 12.378 111.774 12.7906C111.774 13.0353 111.832 13.2416 111.948 13.4094C112.064 13.5764 112.229 13.7278 112.441 13.8637C112.654 13.9988 112.899 14.1215 113.176 14.2312C113.453 14.3409 113.76 14.4531 114.094 14.5693C114.791 14.8271 115.397 15.0817 115.912 15.3338C116.428 15.5843 116.857 15.8781 117.199 16.2129C117.54 16.5485 117.795 16.9414 117.963 17.3925C118.13 17.8435 118.213 18.3919 118.213 19.0361C118.213 20.2869 117.775 21.2568 116.899 21.9469C116.022 22.6361 114.701 22.9807 112.934 22.9807C112.341 22.9807 111.807 22.9455 111.33 22.8751C110.853 22.8039 110.431 22.7163 110.063 22.614C109.695 22.5109 109.38 22.4012 109.116 22.2849C108.851 22.1687 108.629 22.0598 108.448 21.9559L109.299 19.5583C109.699 19.7777 110.192 19.9742 110.779 20.1477C111.364 20.3221 112.084 20.4096 112.934 20.4096Z" fill="#060606"/>
<path d="M124.749 11.7263C124.529 11.7263 124.314 11.7337 124.101 11.746C123.889 11.7583 123.705 11.7714 123.55 11.7845V15.6521H124.498C125.542 15.6521 126.328 15.5105 126.857 15.2265C127.385 14.9432 127.65 14.4145 127.65 13.6409C127.65 13.2677 127.582 12.9583 127.447 12.7127C127.311 12.4679 127.118 12.2715 126.867 12.1233C126.615 11.9752 126.309 11.8712 125.948 11.8139C125.587 11.7558 125.187 11.7263 124.749 11.7263ZM124.556 9.15527C126.554 9.15527 128.088 9.50561 129.158 10.2087C130.228 10.9111 130.763 12.0619 130.763 13.6606C130.763 15.2723 130.221 16.4355 129.139 17.1509C128.056 17.8663 126.509 18.224 124.498 18.224H123.55V22.7105H120.534V9.50316C121.191 9.37383 121.887 9.28379 122.622 9.23222C123.356 9.18065 124.001 9.15527 124.556 9.15527Z" fill="#060606"/>
<path d="M135.52 16.0001C135.52 16.6574 135.6 17.2509 135.761 17.7796C135.923 18.3084 136.154 18.7627 136.458 19.1425C136.761 19.5232 137.132 19.8162 137.57 20.0225C138.008 20.2287 138.511 20.3319 139.078 20.3319C139.632 20.3319 140.132 20.2287 140.577 20.0225C141.021 19.8162 141.395 19.5232 141.698 19.1425C142.001 18.7627 142.233 18.3084 142.395 17.7796C142.555 17.2509 142.636 16.6574 142.636 16.0001C142.636 15.3428 142.555 14.7469 142.395 14.2116C142.233 13.6771 142.001 13.2187 141.698 12.8381C141.395 12.4583 141.021 12.1652 140.577 11.9581C140.132 11.7527 139.632 11.6495 139.078 11.6495C138.511 11.6495 138.008 11.7559 137.57 11.9679C137.132 12.1816 136.761 12.4779 136.458 12.8585C136.154 13.2383 135.923 13.6959 135.761 14.2312C135.6 14.7666 135.52 15.3559 135.52 16.0001ZM145.75 16.0001C145.75 17.1477 145.578 18.1562 145.237 19.0263C144.896 19.8964 144.428 20.6257 143.835 21.2118C143.241 21.7987 142.536 22.2399 141.717 22.5362C140.899 22.8325 140.019 22.9807 139.078 22.9807C138.162 22.9807 137.299 22.8325 136.487 22.5362C135.675 22.2399 134.966 21.7987 134.36 21.2118C133.754 20.6257 133.277 19.8964 132.928 19.0263C132.581 18.1562 132.406 17.1477 132.406 16.0001C132.406 14.8533 132.586 13.8441 132.948 12.9739C133.308 12.1038 133.795 11.372 134.408 10.7794C135.02 10.186 135.73 9.74149 136.535 9.44435C137.34 9.14804 138.188 8.99988 139.078 8.99988C139.993 8.99988 140.857 9.14804 141.67 9.44435C142.482 9.74149 143.19 10.186 143.796 10.7794C144.402 11.372 144.878 12.1038 145.227 12.9739C145.576 13.8441 145.75 14.8533 145.75 16.0001Z" fill="#060606"/>
<path d="M152.362 11.7263C152.144 11.7263 151.947 11.7337 151.773 11.746C151.599 11.7583 151.435 11.7714 151.28 11.7845V15.4196H152.131C153.265 15.4196 154.077 15.278 154.567 14.9948C155.057 14.7108 155.303 14.2278 155.303 13.5443C155.303 12.887 155.055 12.4196 154.558 12.1422C154.061 11.8655 153.33 11.7263 152.362 11.7263ZM152.188 9.15527C154.2 9.15527 155.74 9.51216 156.81 10.2276C157.88 10.943 158.416 12.0554 158.416 13.564C158.416 14.5045 158.2 15.269 157.768 15.8551C157.336 16.442 156.714 16.9028 155.902 17.2376C156.173 17.5732 156.456 17.9563 156.752 18.3885C157.049 18.8199 157.343 19.2717 157.632 19.7416C157.922 20.2122 158.203 20.7026 158.474 21.2117C158.745 21.7208 158.995 22.2201 159.228 22.7105H155.856C155.61 22.2717 155.361 21.8272 155.108 21.3762C154.856 20.9252 154.597 20.4865 154.331 20.0608C154.067 19.6352 153.804 19.2324 153.545 18.8526C153.287 18.472 153.028 18.1274 152.769 17.818H151.28V22.7105H148.263V9.50316C148.921 9.37383 149.601 9.28379 150.304 9.23222C151.005 9.18065 151.635 9.15527 152.188 9.15527Z" fill="#060606"/>
<path d="M170.907 9.30933V11.8812H166.865V22.7106H163.848V11.8812H159.807V9.30933H170.907Z" fill="#060606"/>
<path d="M176.496 20.4096C176.921 20.4096 177.273 20.3736 177.549 20.3032C177.827 20.232 178.049 20.1354 178.217 20.0126C178.384 19.8907 178.5 19.7458 178.565 19.578C178.63 19.4102 178.662 19.2236 178.662 19.0165C178.662 18.5785 178.455 18.2143 178.043 17.9245C177.63 17.6339 176.921 17.3213 175.915 16.9865C175.477 16.8318 175.039 16.655 174.601 16.4552C174.162 16.2547 173.769 16.0034 173.42 15.7005C173.073 15.3977 172.789 15.0301 172.571 14.5979C172.351 14.1666 172.242 13.6411 172.242 13.0222C172.242 12.4034 172.358 11.846 172.589 11.3499C172.821 10.8531 173.15 10.4315 173.575 10.0836C174.002 9.73493 174.517 9.46727 175.123 9.28064C175.728 9.09402 176.411 8.99988 177.173 8.99988C178.075 8.99988 178.855 9.09729 179.512 9.29047C180.169 9.48364 180.711 9.69647 181.137 9.92812L180.267 12.3068C179.893 12.1136 179.476 11.9426 179.019 11.7944C178.562 11.6463 178.011 11.5718 177.366 11.5718C176.644 11.5718 176.125 11.6716 175.809 11.8722C175.494 12.0719 175.335 12.378 175.335 12.7906C175.335 13.0353 175.393 13.2416 175.509 13.4094C175.626 13.5764 175.79 13.7278 176.002 13.8637C176.215 13.9988 176.46 14.1215 176.737 14.2312C177.014 14.3409 177.321 14.4531 177.656 14.5693C178.352 14.8271 178.958 15.0817 179.474 15.3338C179.989 15.5843 180.418 15.8781 180.76 16.2129C181.101 16.5485 181.355 16.9414 181.523 17.3925C181.691 17.8435 181.775 18.3919 181.775 19.0361C181.775 20.2869 181.336 21.2568 180.46 21.9469C179.583 22.6361 178.261 22.9807 176.496 22.9807C175.902 22.9807 175.367 22.9455 174.891 22.8751C174.413 22.8039 173.992 22.7163 173.624 22.614C173.256 22.5109 172.941 22.4012 172.676 22.2849C172.412 22.1687 172.19 22.0598 172.009 21.9559L172.86 19.5583C173.26 19.7777 173.753 19.9742 174.34 20.1477C174.926 20.3221 175.644 20.4096 176.496 20.4096Z" fill="#060606"/>
</svg>
