<svg width="40" height="40" viewBox="0 0 40 40" fill="none" xmlns="http://www.w3.org/2000/svg">
<circle cx="20" cy="20" r="20" fill="#060606" fill-opacity="0.08"/>
<g clip-path="url(#clip0_673_1312)">
<path d="M19.9917 11.6666C15.3917 11.6666 11.6667 15.4 11.6667 20C11.6667 24.6 15.3917 28.3333 19.9917 28.3333C24.6001 28.3333 28.3334 24.6 28.3334 20C28.3334 15.4 24.6001 11.6666 19.9917 11.6666ZM25.7667 16.6666H23.3084C23.0417 15.625 22.6584 14.625 22.1584 13.7C23.6917 14.225 24.9667 15.2916 25.7667 16.6666ZM20.0001 13.3666C20.6917 14.3666 21.2334 15.475 21.5917 16.6666H18.4084C18.7667 15.475 19.3084 14.3666 20.0001 13.3666ZM13.5501 21.6666C13.4167 21.1333 13.3334 20.575 13.3334 20C13.3334 19.425 13.4167 18.8666 13.5501 18.3333H16.3667C16.3001 18.8833 16.2501 19.4333 16.2501 20C16.2501 20.5666 16.3001 21.1166 16.3667 21.6666H13.5501ZM14.2334 23.3333H16.6917C16.9584 24.375 17.3417 25.375 17.8417 26.3C16.3084 25.775 15.0334 24.7166 14.2334 23.3333ZM16.6917 16.6666H14.2334C15.0334 15.2833 16.3084 14.225 17.8417 13.7C17.3417 14.625 16.9584 15.625 16.6917 16.6666ZM20.0001 26.6333C19.3084 25.6333 18.7667 24.525 18.4084 23.3333H21.5917C21.2334 24.525 20.6917 25.6333 20.0001 26.6333ZM21.9501 21.6666H18.0501C17.9751 21.1166 17.9167 20.5666 17.9167 20C17.9167 19.4333 17.9751 18.875 18.0501 18.3333H21.9501C22.0251 18.875 22.0834 19.4333 22.0834 20C22.0834 20.5666 22.0251 21.1166 21.9501 21.6666ZM22.1584 26.3C22.6584 25.375 23.0417 24.375 23.3084 23.3333H25.7667C24.9667 24.7083 23.6917 25.775 22.1584 26.3ZM23.6334 21.6666C23.7001 21.1166 23.7501 20.5666 23.7501 20C23.7501 19.4333 23.7001 18.8833 23.6334 18.3333H26.4501C26.5834 18.8666 26.6667 19.425 26.6667 20C26.6667 20.575 26.5834 21.1333 26.4501 21.6666H23.6334Z" fill="#060606"/>
</g>
<defs>
<clipPath id="clip0_673_1312">
<rect width="20" height="20" fill="white" transform="translate(10 10)"/>
</clipPath>
</defs>
</svg>
