<svg width="40" height="40" viewBox="0 0 40 40" fill="none" xmlns="http://www.w3.org/2000/svg">
<circle cx="20" cy="20" r="20" fill="#13CE66"/>
<g clip-path="url(#clip0_67_1993)">
<path d="M29 16H22.69L23.64 11.43L23.67 11.11C23.67 10.7 23.5 10.32 23.23 10.05L22.17 9L15.59 15.59C15.22 15.95 15 16.45 15 17V27C15 28.1 15.9 29 17 29H26C26.83 29 27.54 28.5 27.84 27.78L30.86 20.73C30.95 20.5 31 20.26 31 20V18C31 16.9 30.1 16 29 16ZM29 20L26 27H17V17L21.34 12.66L20.23 18H29V20ZM9 17H13V29H9V17Z" fill="white"/>
</g>
<defs>
<clipPath id="clip0_67_1993">
<rect width="24" height="24" fill="white" transform="translate(8 8)"/>
</clipPath>
</defs>
</svg>
